<?xml version="1.0" encoding="UTF-8"?>
<svg width="1200pt" height="1200pt" version="1.1" viewBox="0 0 1200 1200" xmlns="http://www.w3.org/2000/svg">
 <g>
  <path d="m658.3 846.01h207.55v-82.008h-125.54z"/>
  <path d="m494.34 1010h371.51v-81.984h-289.52z"/>
  <path d="m695.27 436.02h-318.52v81.984h236.53z"/>
  <path d="m376.75 636.64 45.359 45.348h27.191l81.996-81.984h-154.55z"/>
  <path d="m865.85 638.46-43.523 43.523h43.523z"/>
  <path d="m859.27 272.03h-482.52v81.996h400.51z"/>
  <path d="m257.82 517.7 35.496 35.496v-445.16h655.97v73.98l1.5117-1.5117 33.945-33.949 33.961 33.973 12.566 12.59v-167.08h-819.96v538.21l12.574-12.59z"/>
  <path d="m949.29 1092h-655.97v-165.84l-82.008-82.031v329.87h819.96v-700.93l-81.984 81.984z"/>
  <path d="m1031.3 261.02-46.527-46.57-35.457 35.445-432.09 432.09-81.492 81.48-142.39-142.38-35.484-35.484-46.523 46.547-72 72.035 296.43 296.52 72.699-72.707 328-328 112.85-112.86 154.02-154.02z"/>
 </g>
</svg>
